<?xml version="1.0" encoding="UTF-8"?>
<svg id="Layer_1" data-name="Layer 1" xmlns="http://www.w3.org/2000/svg" xmlns:xlink="http://www.w3.org/1999/xlink" viewBox="0 0 2000 393.29">
  <defs>
    <style>
      .cls-1 {
        fill: url(#Unbenannter_Verlauf_3);
      }

      .cls-2 {
        fill: #fff;
      }

      .cls-3 {
        fill: url(#Unbenannter_Verlauf_3-4);
      }

      .cls-4 {
        fill: url(#Unbenannter_Verlauf_3-3);
      }

      .cls-5 {
        fill: url(#Unbenannter_Verlauf_3-2);
      }

      .cls-6 {
        fill: url(#Unbenannter_Verlauf_3-8);
      }

      .cls-7 {
        fill: url(#Unbenannter_Verlauf_3-7);
      }

      .cls-8 {
        fill: url(#Unbenannter_Verlauf_3-6);
      }

      .cls-9 {
        fill: url(#Unbenannter_Verlauf_3-5);
      }
    </style>
    <linearGradient id="Unbenannter_Verlauf_3" data-name="Unbenannter Verlauf 3" x1="1254.29" y1="394.96" x2="1693.21" y2="76.52" gradientUnits="userSpaceOnUse">
      <stop offset="0" stop-color="#3386bc"/>
      <stop offset="1" stop-color="#82dce5"/>
    </linearGradient>
    <linearGradient id="Unbenannter_Verlauf_3-2" data-name="Unbenannter Verlauf 3" x1="1337.74" y1="509.98" x2="1776.66" y2="191.55" xlink:href="#Unbenannter_Verlauf_3"/>
    <linearGradient id="Unbenannter_Verlauf_3-3" data-name="Unbenannter Verlauf 3" x1="1246.31" y1="383.96" x2="1685.23" y2="65.52" xlink:href="#Unbenannter_Verlauf_3"/>
    <linearGradient id="Unbenannter_Verlauf_3-4" data-name="Unbenannter Verlauf 3" x1="86.21" y1="386.61" x2="360.37" y2="50.44" xlink:href="#Unbenannter_Verlauf_3"/>
    <linearGradient id="Unbenannter_Verlauf_3-5" data-name="Unbenannter Verlauf 3" x1="-116.67" y1="221.15" x2="157.48" y2="-115.02" xlink:href="#Unbenannter_Verlauf_3"/>
    <linearGradient id="Unbenannter_Verlauf_3-6" data-name="Unbenannter Verlauf 3" x1="-42.77" y1="281.42" x2="231.39" y2="-54.75" xlink:href="#Unbenannter_Verlauf_3"/>
    <linearGradient id="Unbenannter_Verlauf_3-7" data-name="Unbenannter Verlauf 3" x1="44.1" y1="352.27" x2="318.26" y2="16.1" xlink:href="#Unbenannter_Verlauf_3"/>
    <linearGradient id="Unbenannter_Verlauf_3-8" data-name="Unbenannter Verlauf 3" x1="54.34" y1="360.62" x2="328.5" y2="24.45" xlink:href="#Unbenannter_Verlauf_3"/>
  </defs>
  <g>
    <path class="cls-2" d="M713.59,287.09h35.4c0-31.57-5.34-58.13-16.03-79.65-10.69-21.53-25.12-37.71-43.29-48.56-18.18-10.84-38.59-16.27-61.24-16.27-25.2,0-47.44,5.26-66.74,15.79-19.3,10.52-34.37,25.2-45.21,44.01-10.85,18.82-16.27,40.66-16.27,65.54s5.42,46.73,16.27,65.54c10.84,18.82,25.83,33.49,44.97,44.01,19.14,10.52,41.14,15.79,66.02,15.79,16.58,0,32.45-2.32,47.6-6.94,15.14-4.62,28.54-11.96,40.19-22.01,11.64-10.05,20.49-22.4,26.55-37.08l-66.98-23.44c-3.19,7.98-8.69,14.59-16.51,19.85-7.82,5.26-17.46,7.89-28.94,7.89-9.25,0-17.78-2.07-25.6-6.22-7.82-4.14-14.11-10.68-18.9-19.61-2.84-5.31-4.82-11.54-5.98-18.66h134.67ZM598.29,208.39c7.01-5.26,15.94-7.89,26.79-7.89,11.8,0,21.36,3.27,28.7,9.81,6.67,5.95,11.68,14.5,15.05,25.6h-87.28c.37-1.4.76-2.76,1.19-4.07,3.35-10.36,8.53-18.18,15.55-23.44Z"/>
    <path class="cls-2" d="M945.61,259.1c-10.21-7.81-22.96-13.47-38.27-16.98l-25.36-6.7c-8.61-1.91-15.15-4.31-19.61-7.18-4.47-2.87-6.7-6.22-6.7-10.05,0-4.78,1.91-8.69,5.74-11.72,3.83-3.03,9.09-4.54,15.79-4.54,7.97,0,15.47,1.67,22.48,5.02,7.01,3.35,11.64,8.06,13.87,14.11l59.32-24.4c-4.15-10.84-10.53-20.33-19.14-28.47-8.61-8.13-19.38-14.43-32.29-18.9-12.92-4.46-27.99-6.7-45.21-6.7-29.98,0-53.42,6.7-70.33,20.09-16.91,13.4-25.36,32.37-25.36,56.93,0,17.54,5.98,33.01,17.94,46.41,11.96,13.39,29.1,22.81,51.43,28.23l20.57,5.74c8.61,1.91,15.23,4.31,19.85,7.18,4.62,2.87,6.94,6.86,6.94,11.96,0,4.78-2.23,8.45-6.7,11-4.47,2.56-10.53,3.83-18.18,3.83s-15.55-1.91-22.72-5.74c-7.18-3.83-12.84-9.72-16.98-17.7l-61.24,25.83c4.78,12.12,12.12,22.33,22.01,30.62,9.88,8.3,21.6,14.76,35.16,19.37,13.55,4.62,28.14,6.94,43.77,6.94,20.41,0,38.43-3.03,54.06-9.09,15.62-6.05,27.9-14.59,36.84-25.6,8.92-11,13.4-24,13.4-38.99,0-11.8-2.63-22.88-7.89-33.25-5.26-10.36-13-19.45-23.2-27.27Z"/>
    <polygon class="cls-2" points="1245.09 148.35 1157.54 148.35 1085.3 229.22 1085.3 52.67 1010.67 52.67 1010.67 387.55 1085.3 387.55 1085.3 330.1 1107.06 305.35 1164.72 387.55 1251.31 387.55 1154.32 251.6 1245.09 148.35"/>
    <path class="cls-1" d="M1465.63,52.67h-76.54l-130.13,334.88h81.33l23.82-63.63h132.25l23.82,63.63h81.33l-130.13-334.88h-5.74ZM1389.53,255.99l40.7-108.74,40.7,108.74h-81.4Z"/>
    <rect class="cls-5" x="1634.03" y="148.35" width="74.63" height="239.2"/>
    <path class="cls-4" d="M1671.34,33.53c-11.17,0-20.97,4.07-29.42,12.2-8.45,8.13-12.68,18.11-12.68,29.9,0,11.17,4.22,20.98,12.68,29.42,8.45,8.45,18.25,12.68,29.42,12.68s21.36-4.22,29.66-12.68c8.29-8.45,12.44-18.25,12.44-29.42,0-11.8-4.15-21.77-12.44-29.9-8.3-8.13-18.18-12.2-29.66-12.2Z"/>
    <path class="cls-2" d="M1925.37,52.67v123.59c-5.1-7.29-11.08-13.49-17.94-18.58-13.56-10.05-30.22-15.07-49.99-15.07-22.33,0-41.55,5.02-57.65,15.07-16.11,10.05-28.55,24.4-37.32,43.06-8.78,18.66-13.16,41.07-13.16,67.21s4.38,48.16,13.16,66.98c8.77,18.82,21.21,33.25,37.32,43.3,16.1,10.05,35.32,15.07,57.65,15.07,19.77,0,36.43-5.02,49.99-15.07,7.38-5.47,13.71-12.29,19.05-20.36l2.23,29.69h71.28V52.67h-74.63ZM1901.93,317.23c-7.34,4.78-15.63,7.18-24.88,7.18s-18.1-2.39-25.59-7.18c-7.5-4.78-13.4-11.4-17.7-19.85-4.31-8.45-6.62-18.25-6.94-29.42.31-11.16,2.63-20.97,6.94-29.42,4.31-8.45,10.12-15.07,17.46-19.85,7.33-4.78,15.79-7.18,25.36-7.18s18.01,2.39,25.36,7.18c7.33,4.78,13.07,11.41,17.22,19.85,4.14,8.46,6.22,18.26,6.22,29.42s-2.08,20.98-6.22,29.42c-4.15,8.45-9.89,15.07-17.22,19.85Z"/>
  </g>
  <g>
    <path class="cls-3" d="M163.17,317.3v70.25h106.35c104.72,0,189.92-85.2,189.92-189.92S374.24,7.71,269.51,7.71H121.06v84.2h148.45c58.3,0,105.72,47.43,105.72,105.72s-47.43,105.72-105.72,105.72h-106.22l-.13,13.95Z"/>
    <path class="cls-9" d="M35.9.57l3.36,9.08c3.64,9.84,11.4,17.6,21.25,21.25l9.08,3.36c.76.28.76,1.36,0,1.65l-9.08,3.36c-9.84,3.64-17.6,11.4-21.25,21.25l-3.36,9.08c-.28.76-1.36.76-1.65,0l-3.36-9.08c-3.64-9.84-11.4-17.6-21.25-21.25l-9.08-3.36c-.76-.28-.76-1.36,0-1.65l9.08-3.36c9.84-3.64,17.6-11.4,21.25-21.25l3.36-9.08c.28-.76,1.36-.76,1.65,0Z"/>
    <path class="cls-8" d="M77.13,88.23l4.63,12.51c5.02,13.56,15.71,24.26,29.28,29.28l12.51,4.63c1.05.39,1.05,1.88,0,2.27l-12.51,4.63c-13.56,5.02-24.26,15.71-29.28,29.28l-4.63,12.51c-.39,1.05-1.88,1.05-2.27,0l-4.63-12.51c-5.02-13.56-15.71-24.26-29.28-29.28l-12.51-4.63c-1.05-.39-1.05-1.88,0-2.27l12.51-4.63c13.56-5.02,24.26-15.71,29.28-29.28l4.63-12.51c.39-1.05,1.88-1.05,2.27,0Z"/>
    <path class="cls-7" d="M120.27,208.69l5.03,13.6c5.46,14.75,17.08,26.37,31.83,31.83l13.6,5.03c1.14.42,1.14,2.04,0,2.46l-13.6,5.03c-14.75,5.46-26.37,17.08-31.83,31.83l-5.03,13.6c-.42,1.14-2.04,1.14-2.46,0l-5.03-13.6c-5.46-14.75-17.08-26.37-31.83-31.83l-13.6-5.03c-1.14-.42-1.14-2.04,0-2.46l13.6-5.03c14.75-5.46,26.37-17.08,31.83-31.83l5.03-13.6c.42-1.14,2.04-1.14,2.46,0Z"/>
    <path class="cls-6" d="M205.76,108.92l6.62,17.89c7.18,19.4,22.48,34.7,41.88,41.88l17.89,6.62c1.51.56,1.51,2.69,0,3.24l-17.89,6.62c-19.4,7.18-34.7,22.48-41.88,41.88l-6.62,17.89c-.56,1.51-2.69,1.51-3.24,0l-6.62-17.89c-7.18-19.4-22.48-34.7-41.88-41.88l-17.89-6.62c-1.51-.56-1.51-2.69,0-3.24l17.89-6.62c19.4-7.18,34.7-22.48,41.88-41.88l6.62-17.89c.56-1.51,2.69-1.51,3.24,0Z"/>
  </g>
</svg>